<svg width="961" height="6" viewBox="0 0 961 6" fill="none" xmlns="http://www.w3.org/2000/svg">
<path d="M0.765527 2.81348C0.765527 4.04754 1.76593 5.04795 3 5.04795C4.23407 5.04795 5.23447 4.04754 5.23447 2.81348C5.23447 1.57941 4.23407 0.579004 3 0.579004C1.76593 0.579004 0.765527 1.57941 0.765527 2.81348ZM956.003 2.81348C956.003 4.04754 957.003 5.04795 958.237 5.04795C959.471 5.04795 960.472 4.04754 960.472 2.81348C960.472 1.57941 959.471 0.579004 958.237 0.579004C957.003 0.579004 956.003 1.57941 956.003 2.81348ZM3 3.23244H958.237V2.39451H3V3.23244Z" fill="#98A393"/>
</svg>
