<svg width="23" height="21" viewBox="0 0 23 21" fill="none" xmlns="http://www.w3.org/2000/svg">
<path d="M1.12412 0.0175781H21.3583C21.6565 0.0175781 21.9424 0.136012 22.1532 0.346826C22.364 0.557639 22.4824 0.843564 22.4824 1.1417V19.1276C22.4824 19.4258 22.364 19.7117 22.1532 19.9225C21.9424 20.1333 21.6565 20.2518 21.3583 20.2518H1.12412C0.825986 20.2518 0.540061 20.1333 0.329248 19.9225C0.118434 19.7117 0 19.4258 0 19.1276V1.1417C0 0.843564 0.118434 0.557639 0.329248 0.346826C0.540061 0.136012 0.825986 0.0175781 1.12412 0.0175781ZM20.2342 4.78161L11.3222 12.7629L2.24824 4.75688V18.0035H20.2342V4.78161ZM2.82267 2.26582L11.3098 9.75472L19.6744 2.26582H2.82267Z" fill="white"/>
</svg>
