<svg width="211" height="6" viewBox="0 0 211 6" fill="none" xmlns="http://www.w3.org/2000/svg">
<path d="M0.328451 3C0.328451 4.47276 1.52236 5.66667 2.99512 5.66667C4.46788 5.66667 5.66178 4.47276 5.66178 3C5.66178 1.52724 4.46788 0.333333 2.99512 0.333333C1.52236 0.333333 0.328451 1.52724 0.328451 3ZM205.338 3C205.338 4.47276 206.532 5.66667 208.005 5.66667C209.478 5.66667 210.672 4.47276 210.672 3C210.672 1.52724 209.478 0.333333 208.005 0.333333C206.532 0.333333 205.338 1.52724 205.338 3ZM2.99512 3.5H208.005V2.5H2.99512V3.5Z" fill="#98A393"/>
</svg>
