<svg width="77" height="80" viewBox="0 0 77 80" fill="none" xmlns="http://www.w3.org/2000/svg">
<ellipse cx="38.5" cy="40" rx="38.5" ry="40" fill="#F9DE4B"/>
<path d="M52.0002 41.9742V39.4807C52.0002 38.8194 51.7473 38.1851 51.2973 37.7175C50.8472 37.2499 50.2367 36.9872 49.6002 36.9872H25.6002C24.9637 36.9872 24.3532 37.2499 23.9031 37.7175C23.4531 38.1851 23.2002 38.8194 23.2002 39.4807V54.4417C23.2002 55.103 23.4531 55.7373 23.9031 56.2049C24.3532 56.6725 24.9637 56.9352 25.6002 56.9352H49.6002C50.2367 56.9352 50.8472 56.6725 51.2973 56.2049C51.7473 55.7373 52.0002 55.103 52.0002 54.4417V51.9482M52.0002 41.9742H42.4002C41.1272 41.9742 39.9063 42.4996 39.0061 43.4348C38.1059 44.3701 37.6002 45.6386 37.6002 46.9612C37.6002 48.2838 38.1059 49.5523 39.0061 50.4875C39.9063 51.4228 41.1272 51.9482 42.4002 51.9482H52.0002M52.0002 41.9742C53.2732 41.9742 54.4941 42.4996 55.3943 43.4348C56.2945 44.3701 56.8002 45.6386 56.8002 46.9612C56.8002 48.2838 56.2945 49.5523 55.3943 50.4875C54.4941 51.4228 53.2732 51.9482 52.0002 51.9482M30.4002 36.9872V29.5066C30.4002 27.5227 31.1588 25.62 32.509 24.2171C33.8593 22.8142 35.6906 22.0261 37.6002 22.0261C39.5098 22.0261 41.3411 22.8142 42.6914 24.2171C44.0416 25.62 44.8002 27.5227 44.8002 29.5066V36.9872M50.8002 46.9612H53.2002M46.0002 46.9612H48.4002M41.2002 46.9612H43.6002" stroke="#444444" stroke-width="2"/>
</svg>
