<svg width="19" height="19" viewBox="0 0 19 19" fill="none" xmlns="http://www.w3.org/2000/svg">
<path d="M5.98046 1.64648H12.2827C14.6836 1.64648 16.6343 3.59718 16.6343 5.99804V12.3003C16.6343 13.4544 16.1758 14.5612 15.3597 15.3773C14.5437 16.1934 13.4368 16.6518 12.2827 16.6518H5.98046C3.5796 16.6518 1.62891 14.7011 1.62891 12.3003V5.99804C1.62891 4.84394 2.08737 3.7371 2.90345 2.92103C3.71952 2.10495 4.82636 1.64648 5.98046 1.64648ZM5.83041 3.14702C5.11407 3.14702 4.42707 3.43159 3.92054 3.93812C3.41401 4.44464 3.12944 5.13165 3.12944 5.84799V12.4503C3.12944 13.9434 4.33737 15.1513 5.83041 15.1513H12.4328C13.1491 15.1513 13.8361 14.8667 14.3426 14.3602C14.8492 13.8537 15.1337 13.1667 15.1337 12.4503V5.84799C15.1337 4.35495 13.9258 3.14702 12.4328 3.14702H5.83041ZM13.0705 4.27242C13.3192 4.27242 13.5578 4.37123 13.7336 4.54711C13.9095 4.72299 14.0083 4.96153 14.0083 5.21026C14.0083 5.45899 13.9095 5.69753 13.7336 5.87341C13.5578 6.04929 13.3192 6.14809 13.0705 6.14809C12.8218 6.14809 12.5832 6.04929 12.4073 5.87341C12.2315 5.69753 12.1327 5.45899 12.1327 5.21026C12.1327 4.96153 12.2315 4.72299 12.4073 4.54711C12.5832 4.37123 12.8218 4.27242 13.0705 4.27242ZM9.13159 5.39782C10.1265 5.39783 11.0807 5.79305 11.7842 6.49657C12.4877 7.20008 12.8829 8.15425 12.8829 9.14917C12.8829 10.1441 12.4877 11.0983 11.7842 11.8018C11.0807 12.5053 10.1265 12.9005 9.13159 12.9005C8.13667 12.9005 7.1825 12.5053 6.47899 11.8018C5.77548 11.0983 5.38025 10.1441 5.38025 9.14917C5.38025 8.15425 5.77548 7.20008 6.47899 6.49657C7.1825 5.79305 8.13667 5.39783 9.13159 5.39782ZM9.13159 6.89836C8.53464 6.89836 7.96214 7.1355 7.54003 7.55761C7.11792 7.97971 6.88078 8.55222 6.88078 9.14917C6.88078 9.74612 7.11792 10.3186 7.54003 10.7407C7.96214 11.1628 8.53464 11.4 9.13159 11.4C9.72854 11.4 10.301 11.1628 10.7231 10.7407C11.1453 10.3186 11.3824 9.74612 11.3824 9.14917C11.3824 8.55222 11.1453 7.97971 10.7231 7.55761C10.301 7.1355 9.72854 6.89836 9.13159 6.89836Z" fill="black"/>
</svg>
