<svg width="86" height="110" viewBox="0 0 86 110" fill="none" xmlns="http://www.w3.org/2000/svg">
<path d="M61.5274 88.8867H43.7281H42.2717H24.4716L20.208 93.2459H42.2717H43.7281H65.7901L61.5274 88.8867Z" fill="#202628"/>
<path d="M45.802 76.4976C45.7107 73.1765 46.026 69.4744 46.3979 66.1794C46.7191 63.3332 48.1857 62.499 48.1857 62.499H37.8132C37.8132 62.499 39.2806 63.3332 39.6009 66.1794C39.9737 69.4744 40.289 73.1765 40.1969 76.4976C40.0498 81.8506 35.4751 83.2568 35.4751 83.2568H50.5238C50.5238 83.2568 45.9491 81.8506 45.802 76.4976Z" fill="#DAAB2A"/>
<path d="M45.8016 76.4976C45.7103 73.1765 46.0256 69.4744 46.3975 66.1794C46.7187 63.3332 48.1853 62.499 48.1853 62.499H46.6731C45.2986 65.4095 44.5227 68.3312 44.5531 71.9743C44.5709 74.1244 45.0806 76.5436 46.1287 78.6103C45.9453 77.9827 45.8236 77.284 45.8016 76.4976Z" fill="#C0977D"/>
<path opacity="0.5" d="M35.4761 83.2568H46.8215C45.0253 82.6275 43.399 81.6918 43.1386 80.2188C42.8918 78.8273 43.5511 77.7987 42.9425 76.3613C42.3931 75.0636 42.8453 73.8024 42.4015 72.4917C42.1023 71.6063 42.508 70.6645 42.2282 69.8147C42.0752 69.3477 41.8386 68.7436 41.8749 68.2253C41.9713 66.84 41.1209 66.3287 41.3644 64.9286C41.5241 63.9912 41.9408 63.1769 42.5114 62.499H37.8141C37.8141 62.499 39.2816 63.3332 39.6019 66.1794C39.9747 69.4744 40.29 73.1765 40.1979 76.4976C40.0508 81.8506 35.4761 83.2568 35.4761 83.2568Z" fill="#E6D5CD"/>
<path d="M35.4761 59.2407C35.4761 59.2407 35.613 62.4993 37.8141 62.4993C39.1336 62.4993 46.868 62.4993 48.1867 62.4993C50.3869 62.4993 50.5256 59.2407 50.5256 59.2407H35.4761Z" fill="#BD9625"/>
<path d="M47.1829 60.3023C48.2285 60.1851 49.198 59.9731 50.111 59.6577H40.2236C41.9784 60.8105 45.4754 60.4935 47.1829 60.3023Z" fill="#C0977D"/>
<path opacity="0.5" d="M45.0261 61.0905C42.803 61.0228 40.2756 61.2207 39.1877 59.2407H35.4761C35.4761 59.2407 35.613 62.4993 37.8141 62.4993H48.1867C49.5459 62.4993 50.1173 61.2563 50.3557 60.3075C48.7031 60.9038 46.9263 61.1469 45.0261 61.0905Z" fill="#E6D5CD"/>
<path d="M51.7432 83.2568C49.307 83.2568 36.6911 83.2568 34.2559 83.2568C30.7327 83.2568 30.5112 86.1031 30.5112 86.1031H55.4886C55.4886 86.1031 55.2672 83.2568 51.7432 83.2568Z" fill="#BD9625"/>
<path d="M38.5752 83.2977C37.4789 83.6129 51.2368 83.6502 54.6171 84.3014C54.071 83.737 53.1869 83.2568 51.7431 83.2568H38.6902C38.6504 83.269 38.6158 83.2855 38.5752 83.2977Z" fill="#C0977D"/>
<path opacity="0.5" d="M40.5773 85.1335C39.4877 85.1604 36.6974 85.7047 35.9958 84.4738C35.7219 83.9938 35.8403 83.5954 36.1556 83.2568H34.2554C30.7322 83.2568 30.5107 86.1031 30.5107 86.1031H55.4881C55.4881 86.1031 55.4569 85.7437 55.2633 85.2793C50.9489 86.761 44.8561 85.0319 40.5773 85.1335Z" fill="#E6D5CD"/>
<path d="M55.3892 86.103C51.7713 86.103 34.2274 86.103 30.6096 86.103C27.9807 86.103 27.5674 88.9493 27.5674 88.9493H58.4322C58.4322 88.9493 58.0197 86.103 55.3892 86.103Z" fill="#A38220"/>
<path opacity="0.5" d="M45.7699 88.4882C43.1842 88.6054 40.6407 88.3494 38.0626 88.1645C37.1007 88.0968 36.1311 88.0282 35.2537 87.5673C34.4608 87.1506 34.0627 86.6446 34.0999 86.1021H30.6105C27.9817 86.1021 27.5684 88.9483 27.5684 88.9483H52.7765C50.4182 88.7443 48.0345 88.3867 45.7699 88.4882Z" fill="#E6D5CD"/>
<path d="M54.0566 87.0032C55.8385 87.1273 56.8765 86.9849 58.0134 87.7375C57.6085 86.9624 56.8359 86.103 55.3896 86.103H35.3039C35.2371 86.5848 51.3238 86.8139 54.0566 87.0032Z" fill="#C0977D"/>
<path d="M57.902 88.9492C53.4541 88.9492 32.5442 88.9492 28.0971 88.9492C24.9636 88.9492 24.4717 91.7954 24.4717 91.7954H61.5274C61.5274 91.7954 61.0354 88.9492 57.902 88.9492Z" fill="#90731B"/>
<path opacity="0.5" d="M58.2504 91.6314C53.592 91.2156 48.8 91.0524 44.1231 90.8727C41.7588 90.7816 39.4435 90.9613 37.0852 91.0507C35.7758 91.1002 33.9661 91.3484 32.7683 90.628C31.9704 90.1479 32.0583 89.5021 32.453 88.9492H28.0981C24.9646 88.9492 24.4727 91.7954 24.4727 91.7954H59.2765C58.919 91.7217 58.5741 91.66 58.2504 91.6314Z" fill="#E6D5CD"/>
<path d="M34.0532 88.9987C34.1318 89.8493 37.3853 89.5343 37.9635 89.4882C39.1402 89.3919 55.4897 89.3502 58.2285 89.7235C58.9309 89.8181 60.3839 90.3728 61.3332 91.1757C60.9917 90.3398 60.0932 88.9492 57.9022 88.9492H34.1242C34.0997 88.9657 34.082 88.9865 34.0532 88.9987Z" fill="#C0977D"/>
<path d="M65.79 106.946C59.1816 106.946 26.818 106.946 20.2079 106.946C18.4886 106.946 18.2139 109.79 18.2139 109.79H67.7858C67.7858 109.79 67.5102 106.946 65.79 106.946Z" fill="#202628"/>
<path opacity="0.5" d="M31.4993 107.606C32.0335 107.634 32.5677 107.625 33.1003 107.582C33.9007 107.511 34.6953 107.413 35.4924 107.317C37.6496 107.058 39.8372 107.011 42.0071 107.047C46.7863 107.131 51.5199 107.729 56.2831 108.071C59.2078 108.28 63.332 108.53 66.2651 107.348C66.0039 107.106 65.6827 106.946 65.2778 106.946H30.1122C30.0522 107.539 30.5078 107.764 31.4993 107.606Z" fill="#9B9B9A"/>
<path opacity="0.5" d="M51.787 108.791C48.0331 108.371 44.2521 108.094 40.4728 108.183C37.4264 108.253 34.2904 108.982 31.2583 108.655C29.9101 108.51 29.0572 107.743 28.8197 106.946H20.2079C18.4886 106.946 18.2139 109.79 18.2139 109.79H67.7858C67.7858 109.79 67.7122 109.046 67.4121 108.321C62.8712 110.245 55.6542 109.225 51.787 108.791Z" fill="#858584"/>
<path d="M65.7901 93.2461H20.208V106.946H65.7901V93.2461Z" fill="#111516"/>
<path opacity="0.5" d="M52.1168 105.542C48.471 105.095 44.8803 105.148 41.2303 104.931C38.6894 104.779 35.7816 104.934 33.3472 104.11C32.9338 103.973 32.7563 103.302 33.217 103.078C33.9625 102.716 34.7934 102.629 35.577 102.412C33.7681 101.899 31.7572 101.933 29.9178 101.704C29.0565 101.595 27.9213 101.447 27.2687 100.778C26.9407 100.44 26.8063 99.719 27.1622 99.3527C27.4166 99.0923 27.7032 98.9925 28.0447 98.9083C27.6837 98.9942 27.0988 98.5489 26.8215 98.3345C26.5341 98.1123 26.3989 97.5498 26.8215 97.3589C27.3532 97.1193 27.9863 96.9492 28.4741 96.6419C27.9179 96.9934 25.7218 96.7122 25.0354 96.6462C24.6491 96.6089 24.3127 96.1853 24.5604 95.7964C25.5866 94.1915 27.5645 93.6229 29.4115 93.2471H20.208V106.947H65.7901V106.937C61.234 106.632 56.6974 106.103 52.1168 105.542Z" fill="#858584"/>
<path d="M78.0316 2.66829C78.0316 2.66829 74.3503 5.91294 71.0055 5.32443C71.0901 3.59533 71.1425 1.82284 71.1543 0C66.4832 0 19.5165 0 14.8438 0C14.8573 1.82284 14.9089 3.59533 14.9926 5.32443C11.6494 5.91381 7.96737 2.66829 7.96737 2.66829L0.790039 11.3875C0.790039 11.3875 11.2843 34.7372 14.8438 41.8645C18.7397 49.6646 25.3811 49.8703 27.7741 49.6646C31.927 56.2259 35.4756 59.2397 35.4756 59.2397H50.5242C50.5242 59.2397 54.0719 56.2251 58.2256 49.6646C60.6178 49.8694 67.2601 49.6646 71.1543 41.8645C74.7155 34.7372 85.2097 11.3875 85.2097 11.3875L78.0316 2.66829ZM15.5631 33.6661C12.1938 26.5996 5.45687 12.4674 5.45687 12.4674L8.58613 8.09428C8.58613 8.09428 11.6216 11.4804 15.3662 10.5924C16.3873 21.4982 18.7896 30.3876 21.5959 37.4403C20.2367 38.1303 17.8167 38.3899 15.5631 33.6661ZM70.4358 33.6661C68.1823 38.3899 65.7622 38.1303 64.403 37.4403C67.2085 30.3876 69.6117 21.4982 70.6319 10.5924C74.3765 11.4804 77.412 8.09428 77.412 8.09428L80.5404 12.4674C80.5404 12.4674 73.8051 26.5996 70.4358 33.6661Z" fill="#DAAB2A"/>
<path d="M40.9971 0C44.7704 2.95821 52.3434 2.6327 56.6687 2.11102C58.1201 1.93655 68.7732 1.44959 68.7732 1.44959C68.7732 1.44959 61.7269 4.84181 61.0633 5.03885C58.339 5.8435 62.3118 6.9155 63.0887 7.07435C66.7843 7.82345 69.8493 7.61773 73.4206 6.3131C74.8567 5.78968 78.0486 4.02761 79.2125 5.92423C80.6427 8.25746 82.3113 9.65063 84.1701 10.1263L78.0308 2.66916C78.0308 2.66916 74.3496 5.91381 71.0048 5.32529C71.0893 3.5962 71.1417 1.82371 71.1535 0.000867542L40.9971 0Z" fill="#D8B9A4"/>
<path opacity="0.5" d="M40.6242 50.4718C40.9437 48.215 40.5659 46.5189 38.1965 45.7958C37.2211 45.4989 36.2355 45.2802 35.2448 45.0398C34.3006 44.8123 32.5999 44.6144 32.0023 43.6449C31.2508 42.4262 31.9118 40.9392 32.2863 39.6928C32.9169 37.5922 30.8028 36.4594 30.5712 34.5376C30.2771 32.0976 32.3328 30.0604 30.0793 27.9849C29.0987 27.0805 27.7665 25.939 27.6406 24.4668C27.5628 23.5415 27.7412 22.6509 27.7657 21.7291C27.8113 19.9931 27.1723 18.7049 26.5502 17.1434C26.0793 15.9655 25.8105 14.995 25.9635 13.739C26.1377 12.3102 26.2332 10.9535 25.1808 9.7548C23.1251 7.41201 26.2104 5.16818 28.2052 4.82531C30.2618 4.47203 32.4266 4.78973 34.4976 4.73331C37.205 4.66126 39.8744 4.42342 42.5033 3.76373C41.4205 2.38184 38.4966 2.68999 36.9861 2.21258C35.5846 1.77163 34.6075 1.30029 33.7757 0.0407977C33.7656 0.0269094 33.7613 0.0156243 33.7529 0H14.8438C14.8573 1.82284 14.9089 3.59533 14.9926 5.32443C11.6494 5.91381 7.96737 2.66829 7.96737 2.66829L0.790039 11.3875C0.790039 11.3875 11.2843 34.7372 14.8438 41.8645C18.7397 49.6646 25.3811 49.8703 27.7741 49.6646C31.927 56.2259 35.4756 59.2397 35.4756 59.2397H43.0274C40.5904 57.225 40.2041 53.4292 40.6242 50.4718ZM15.5631 33.6661C12.1938 26.5996 5.45687 12.4674 5.45687 12.4674L8.58613 8.09428C8.58613 8.09428 11.6216 11.4804 15.3662 10.5924C16.3873 21.4982 18.7896 30.3876 21.5959 37.4403C20.2367 38.1303 17.8167 38.3899 15.5631 33.6661Z" fill="#E6D5CD"/>
<path opacity="0.5" d="M35.8686 52.6399C34.0673 49.3631 32.6329 45.6697 28.4597 45.5942C21.8664 45.4718 19.3154 45.5178 16.3214 39.5849C14.6916 36.3507 11.8658 29.3831 10.0612 26.2434C8.19814 23.0023 5.63607 20.1994 4.06975 16.7803C2.83648 14.086 2.80183 11.1877 3.40283 8.33447L0.790039 11.508C0.790039 11.508 11.2843 34.8577 14.8438 41.9858C18.7397 49.7841 25.3811 49.9898 27.7741 49.7841C31.927 56.3455 35.4756 59.3592 35.4756 59.3592H39.7434C38.2743 57.2491 37.1019 54.8863 35.8686 52.6399Z" fill="#E6D5CD"/>
<path d="M45.2541 3.71089C43.0801 6.94253 37.5291 5.82712 34.2815 5.82712C31.3627 5.82712 24.3476 6.0233 25.9934 11.0656C26.7542 13.3928 31.7879 12.4605 33.7337 12.6038C35.1065 12.7062 37.7328 13.5638 34.9678 13.8797C34.213 13.9657 30.6417 14.0473 30.9426 15.5732C31.2038 16.8952 35.8951 15.3875 35.8791 17.6669C33.8182 18.3908 29.3627 21.0105 31.257 24.0208C32.1598 25.4539 34.1471 25.6449 35.5942 25.7108C37.4969 25.7985 41.3219 24.9583 42.7994 26.1631C41.7217 27.1188 40.0303 27.3575 38.7497 28.0328C37.2932 28.8036 35.6441 30.274 34.5553 31.5318C34.0169 32.1559 33.0465 33.5612 33.8301 34.3259C34.3203 34.8042 36.1851 34.582 36.863 34.7808C37.7252 35.0377 38.9297 35.4326 38.2408 36.4795C37.6635 37.3536 36.2527 36.8519 35.5866 37.7468C34.4869 39.2259 35.9568 38.995 36.2839 39.7528C36.688 40.685 35.7269 41.6676 35.9205 42.6667C37.1529 42.9974 38.2129 43.908 39.4715 44.25C40.8519 44.6276 42.5247 44.5902 43.9794 44.533C45.3243 44.4817 46.7951 44.6718 45.5263 46.1145C44.6405 47.1214 43.3954 47.4981 42.8104 48.9034C42.2559 50.2393 43.1046 51.1039 43.0513 52.5838C43.0226 53.3685 42.4622 55.5663 42.9034 56.2556C43.2128 56.7382 45.681 57.3657 46.3513 57.5237C47.6641 57.8319 48.73 57.4777 49.9277 56.9239C52.4509 55.7573 51.9547 53.3086 53.232 51.0223C54.5168 48.7238 56.876 48.1891 59.2791 47.9156C61.4304 47.6691 63.8699 47.657 65.607 46.1145C67.0152 44.8637 69.8436 42.3377 69.9873 40.3092C67.4658 40.0765 64.7904 41.3881 62.4354 39.7224C59.9824 37.9864 61.9469 35.7894 63.1303 33.9371C64.4608 31.8538 65.7321 29.8114 62.5808 28.9546C60.4465 28.3722 58.2656 29.0162 56.264 27.722C57.1997 26.058 61.7846 27.637 63.5495 26.4157C64.6442 25.6579 65.0288 24.46 65.7059 23.3385C66.6526 21.7718 66.8597 21.297 65.4683 19.9498C64.3813 18.8952 62.9207 18.1495 63.8141 16.7051C64.6839 15.3016 65.9814 15.18 65.9814 13.4909C65.9806 12.1993 65.5875 11.6021 66.8419 10.6316C67.4886 10.1325 69.5316 10.2714 69.5984 9.50232C69.6846 8.53014 64.0407 8.93203 63.2342 8.93377C61.6434 8.93724 54.9521 8.10654 56.6334 5.64918C57.0645 5.019 58.5826 4.86102 58.7678 4.13796C59.0797 2.91579 56.8084 3.2847 56.013 3.2847C53.5194 3.2847 50.9353 3.56767 48.5516 3.9904L45.2541 3.71089Z" fill="#C0977D"/>
<path d="M46.6886 6.20771C45.708 9.13901 43.2034 8.12864 41.7394 8.12864C40.4216 8.12864 37.2577 8.30485 38.0007 12.8741C38.343 14.9886 40.6152 14.1414 41.4917 14.2707C42.1122 14.3619 43.2973 15.1405 42.0488 15.4269C41.7081 15.5051 40.0979 15.5797 40.2331 16.9625C40.3514 18.1603 42.4672 16.7941 42.4596 18.8608C41.5306 19.5153 39.5197 21.8911 40.3751 24.6201C40.7825 25.9204 41.6777 26.0949 42.3319 26.1548C43.1899 26.2329 44.916 25.4717 45.5829 26.5636C45.096 27.4299 44.3327 27.6469 43.7554 28.2606C43.0995 28.9585 42.3539 30.29 41.8637 31.4323C41.6211 31.9974 41.1832 33.2717 41.5357 33.9644C41.758 34.3984 42.5991 34.1961 42.9034 34.3775C43.293 34.6084 43.8366 34.9704 43.5255 35.9148C43.2651 36.7082 42.6286 36.2551 42.3286 37.0667C41.8315 38.4069 42.4951 38.1986 42.6439 38.8852C42.8256 39.7297 42.3911 40.6195 42.479 41.5248C43.0352 41.8251 43.5137 42.6498 44.0817 42.9631C44.7047 43.3051 45.4595 43.2695 46.1155 43.2183C46.7224 43.1706 47.3859 43.3433 46.8128 44.6523C46.413 45.5646 45.8517 45.9048 45.588 47.1817C45.3378 48.3917 45.7207 49.1764 45.697 50.5157C45.6835 51.2284 45.4316 53.2205 45.6311 53.8437C45.7697 54.2847 46.883 54.8515 47.1856 54.9956C47.7773 55.2751 48.2591 54.9531 48.7992 54.4522C49.9378 53.395 49.7138 51.1737 50.2903 49.1026C50.8702 47.0185 51.9336 46.5341 53.0198 46.2833C53.9893 46.0611 55.0899 46.0507 55.8743 44.6523C56.5083 43.5178 57.7846 41.2279 57.8489 39.3895C56.7128 39.1785 55.5049 40.366 54.4432 38.8574C53.3368 37.2828 54.2226 35.2924 54.7568 33.6119C55.3561 31.7214 55.9309 29.8725 54.5075 29.0965C53.5455 28.5687 52.5616 29.1521 51.6597 27.9768C52.0806 26.4708 54.1491 27.903 54.947 26.7936C55.4407 26.1053 55.6139 25.022 55.9191 24.0047C56.346 22.5838 56.4381 22.155 55.8117 20.9328C55.3215 19.9771 54.6622 19.3009 55.0654 17.9911C55.4576 16.7194 56.0425 16.6075 56.0417 15.0771C56.0417 13.9053 55.8642 13.3645 56.4297 12.4852C56.7213 12.033 57.6435 12.1597 57.6739 11.461C57.7128 10.5773 55.1668 10.9454 54.8033 10.9454C54.0848 10.9471 51.0672 10.1963 51.8254 7.96979C52.0198 7.3969 52.7053 7.25368 52.7882 6.60006C52.9302 5.48986 51.9057 5.82405 51.5464 5.82405C50.4222 5.82405 49.2557 6.08011 48.1813 6.46378L46.6886 6.20771Z" fill="#C0977D"/>
<path opacity="0.5" d="M28.405 94.1727C28.0221 94.2708 27.6155 94.4331 27.4946 94.8784C27.2892 95.6345 28.0669 95.6414 28.6307 95.7248C28.9071 95.7655 30.0246 95.6718 30.1979 95.92C30.5774 96.4574 29.6019 96.4981 29.3526 96.6292C27.8142 97.4295 30.104 98.1812 30.8944 98.3592C31.8605 98.5779 32.9188 98.5562 33.907 98.6083C34.7278 98.65 36.4344 98.3323 37.0836 98.8314C36.4598 99.4789 35.1107 99.656 34.2502 99.7359C33.6534 99.7923 32.6932 99.702 32.2604 100.09C33.2198 100.431 33.9163 101.109 34.9332 101.232C35.8959 101.348 36.7412 101.071 37.677 101.389C37.5316 102.126 36.7057 102.437 36.5299 103.132C37.9483 103.521 39.5713 103.145 41.0404 103.407C42.7419 103.71 44.2829 103.716 46.0242 103.777C47.2828 103.822 48.4721 104.276 49.7223 104.344C50.7739 104.401 51.8347 104.305 52.8871 104.343C54.1449 104.386 55.3553 104.829 56.597 105.049C57.6917 105.244 58.799 105.327 59.9004 105.419C61.345 105.538 63.088 106.129 64.3534 105.174C64.9062 104.756 65.1826 104.01 64.5782 103.513C64.0356 103.069 63.203 103.449 62.6586 103.022C63.2021 102.764 63.9696 103.15 64.3923 102.594C64.5233 102.421 64.8192 101.156 64.7194 100.95C64.4751 100.449 63.3467 100.771 63.1294 100.305C62.793 99.5805 64.1691 99.8096 64.4413 99.6673C65.4658 99.1265 64.2427 98.7211 63.9071 98.4668C63.1176 97.8714 63.9696 97.6708 64.3872 97.2125C65.1353 96.3888 65.4142 94.5251 64.2342 94.1745C62.5952 93.6858 60.2724 94.1042 58.5742 94.1042C56.1245 94.1042 53.6588 94.046 51.2185 94.1771C49.2354 94.2821 47.2363 94.0338 45.2398 94.0338C43.0893 94.0338 40.9372 94.1745 38.7936 94.1745C36.8934 94.1745 35.1208 94.1215 33.2849 93.8377C32.4277 93.7049 31.2131 94.0781 30.4684 93.75L28.405 94.1727Z" fill="#9B9B9A"/>
<path opacity="0.5" d="M36.1545 94.8915C35.8789 94.961 35.5882 95.079 35.5011 95.3976C35.3523 95.9418 35.9119 95.9444 36.3168 96.0061C36.5146 96.0347 37.3176 95.9661 37.4419 96.1441C37.7149 96.5321 37.0133 96.5607 36.835 96.6528C35.7302 97.2291 37.3734 97.7682 37.9423 97.8984C38.6363 98.0537 39.3962 98.039 40.1062 98.0754C40.6954 98.1041 41.9219 97.8767 42.3877 98.2351C41.9388 98.7021 40.971 98.8297 40.3539 98.8862C39.9253 98.927 39.2356 98.861 38.9254 99.1405C39.6134 99.3853 40.1138 99.8722 40.845 99.9608C41.5365 100.044 42.1434 99.8462 42.8162 100.074C42.7114 100.603 42.118 100.825 41.9904 101.324C43.0098 101.606 44.1746 101.335 45.2312 101.523C46.451 101.739 47.5583 101.743 48.8102 101.789C49.7129 101.821 50.5667 102.146 51.4661 102.198C52.2217 102.238 52.9825 102.169 53.7382 102.196C54.6409 102.228 55.5107 102.543 56.4008 102.704C57.1878 102.84 57.9824 102.902 58.7744 102.968C59.8124 103.053 61.0634 103.478 61.9713 102.792C62.3686 102.49 62.5664 101.957 62.1327 101.6C61.7431 101.281 61.1454 101.554 60.7532 101.246C61.1437 101.061 61.6949 101.34 61.9992 100.939C62.093 100.814 62.3043 99.9069 62.2333 99.7585C62.0583 99.3974 61.2469 99.6301 61.0905 99.2959C60.8496 98.7751 61.8386 98.9417 62.033 98.8367C62.7692 98.4495 61.8901 98.1579 61.6501 97.9756C61.0837 97.5485 61.6949 97.4053 61.9941 97.0746C62.5317 96.4852 62.7329 95.145 61.8842 94.8933C60.7067 94.5426 59.0398 94.8412 57.8192 94.8412C56.0593 94.8412 54.2885 94.7995 52.5362 94.895C51.1127 94.9714 49.6766 94.7908 48.2438 94.7908C46.7003 94.7908 45.1534 94.8933 43.6133 94.8933C42.249 94.8933 40.976 94.8551 39.6582 94.6511C39.042 94.5565 38.1688 94.8256 37.6338 94.5903L36.1545 94.8915Z" fill="#9B9B9A"/>
</svg>
