<svg width="102" height="124" viewBox="0 0 102 124" fill="none" xmlns="http://www.w3.org/2000/svg">
<path d="M27.7639 51.051C27.5027 50.9763 21.2462 49.122 10.9781 40.3833C0.366856 31.3525 0.0269466 16.439 0.0177864 15.8087C0.0102619 15.2964 0.206878 14.8023 0.564454 14.4352C0.921702 14.0683 1.41063 13.8584 1.92295 13.8527L20.131 13.6384L20.1761 17.4939L4.02472 17.6841C4.48241 21.756 6.30398 31.3425 13.4772 37.4473C23.0078 45.5583 28.7754 47.3295 28.8325 47.3464L27.7639 51.051Z" fill="#FCAB28"/>
<path d="M74.2361 51.0509L73.1768 47.3437C73.2247 47.3293 78.9923 45.5579 88.5229 37.447C95.6955 31.3426 97.5172 21.7574 97.9754 17.6839L81.824 17.4937L81.8691 13.6382L100.077 13.8525C100.589 13.8584 101.078 14.0681 101.436 14.435C101.793 14.8022 101.99 15.2962 101.982 15.8085C101.973 16.4388 101.633 31.3522 91.022 40.383C80.7537 49.122 74.4975 50.9763 74.2361 51.0509Z" fill="#FCAB28"/>
<path d="M19.2965 13.8524C19.2965 13.8524 16.9402 12.9956 16.9402 10.6393C16.9402 8.28295 16.5118 7.21186 18.654 5.06968C20.796 2.9275 37.0049 0 50.0717 0C63.1386 0 80.9897 3.57019 83.1317 5.49809C85.2739 7.42598 84.4169 12.567 83.9885 13.424C83.5601 14.2808 81.8464 14.0666 81.8464 14.0666L19.2965 13.8524Z" fill="#FFCF3F"/>
<path d="M49.9297 7.21191C41.8638 7.21191 24.8669 8.283 18.6548 12.7815C18.6548 12.7815 18.6548 35.9164 25.0812 47.6981C31.5075 59.4797 42.8608 69.1192 42.8608 69.1192H48.6445H50.3581H58.284C58.284 69.1192 69.6372 59.4797 76.0636 47.6981C82.49 35.9164 82.49 12.7815 82.49 12.7815C75.635 8.283 57.9956 7.21191 49.9297 7.21191Z" fill="#FFD733"/>
<path d="M49.9297 7.21191C41.8638 7.21191 24.8669 8.283 18.6548 12.7815C18.6548 12.7815 18.6548 35.9164 25.0812 47.6981C28.1256 53.2797 32.2749 58.3782 35.7999 62.2011C38.266 63.248 41.1011 63.9074 44.3603 63.9782C64.0678 64.4066 69.209 47.6981 71.351 41.7001C74.726 32.25 76.6466 17.4121 77.401 10.5261C69.12 7.90776 56.4236 7.21191 49.9297 7.21191Z" fill="#FFE266"/>
<path d="M72.6355 98.0377C70.7076 92.2541 66.6375 93.1109 66.6375 93.1109C66.6375 93.1109 66.6306 91.2515 63.7817 90.9849C62.0167 90.4418 57.4678 88.6948 55.9269 84.7566C53.999 79.8297 54.8558 73.6176 54.8558 73.6176L50.5716 73.0588L46.2874 73.6176C46.2874 73.6176 47.1443 79.8299 45.2164 84.7566C43.6753 88.6947 39.1266 90.4418 37.3616 90.9849C34.5127 91.2515 34.5058 93.1109 34.5058 93.1109C34.5058 93.1109 30.4357 92.2541 28.5078 98.0377H72.6355Z" fill="#FFCE45"/>
<path d="M34.5063 93.111C37.1841 92.9382 39.8616 92.8221 42.5394 92.7634C45.2169 92.692 47.8945 92.6729 50.5722 92.6641C53.2499 92.6719 55.9275 92.6909 58.6052 92.762C61.2829 92.8204 63.9605 92.9372 66.6382 93.111C63.9605 93.2848 61.2829 93.4015 58.6052 93.46C55.9275 93.5312 53.2499 93.5502 50.5722 93.558C47.8945 93.549 45.2169 93.53 42.5394 93.4587C39.8616 93.3997 37.1839 93.2837 34.5063 93.111Z" fill="#FCAB28"/>
<path d="M58.2832 72.118H43.0741C42.1277 72.118 41.3604 71.3507 41.3604 70.4042C41.3604 69.4578 42.1275 68.6904 43.0741 68.6904H58.2832C59.2296 68.6904 59.997 69.4576 59.997 70.4042C59.997 71.3507 59.2296 72.118 58.2832 72.118Z" fill="#FCAB28"/>
<path d="M57.4272 74.2812H43.9317C43.0919 74.2812 42.4111 73.6004 42.4111 72.7606C42.4111 71.9208 43.0919 71.24 43.9317 71.24H57.4272C58.267 71.24 58.9478 71.9208 58.9478 72.7606C58.9476 73.6005 58.267 74.2812 57.4272 74.2812Z" fill="#FCAB28"/>
<path d="M27.9477 97.8235H74.6954C76.2789 97.8235 77.5625 99.1072 77.5625 100.691V120.448C77.5625 122.031 76.2788 123.315 74.6954 123.315H27.9477C26.3641 123.315 25.0806 122.031 25.0806 120.448V100.691C25.0806 99.1072 26.3643 97.8235 27.9477 97.8235Z" fill="#6C554F"/>
<path d="M35.8344 102.236H66.8095C67.543 102.236 68.1376 102.831 68.1376 103.564V114.36C68.1376 115.094 67.543 115.688 66.8095 115.688H35.8344C35.1009 115.688 34.5063 115.094 34.5063 114.36V103.564C34.5063 102.831 35.1009 102.236 35.8344 102.236Z" fill="#FCAB28"/>
<path d="M40.1042 102.236H50.758C51.0102 102.236 51.2148 102.831 51.2148 103.564V114.36C51.2148 115.094 51.0104 115.688 50.758 115.688H40.1042C39.8519 115.688 39.6475 115.094 39.6475 114.36V103.564C39.6473 102.831 39.8519 102.236 40.1042 102.236Z" fill="#FFD733"/>
<path d="M42.8604 69.1192C44.1457 69.0269 45.4309 68.9838 46.7161 68.9479C48.0014 68.907 49.2867 68.9013 50.5719 68.8958C51.8571 68.9008 53.1425 68.9067 54.4277 68.9473L56.3556 69.0096C56.9983 69.0467 57.6408 69.0685 58.2835 69.1192C57.641 69.1699 56.9983 69.1917 56.3556 69.2288L54.4277 69.2911C53.1425 69.3317 51.8571 69.3376 50.5719 69.3426C49.2867 69.3371 48.0014 69.3314 46.7161 69.2903C45.4308 69.2546 44.1456 69.2115 42.8604 69.1192Z" fill="#FFE266"/>
<path d="M42.9316 71.6897C44.2407 71.5975 45.5498 71.5543 46.8589 71.5185C48.168 71.4776 49.4771 71.4719 50.7862 71.4663C52.0953 71.4714 53.4044 71.4773 54.7135 71.5178L56.6772 71.5803C57.3317 71.6175 57.9861 71.6392 58.6407 71.6899C57.9861 71.7406 57.3317 71.7624 56.6772 71.7995L54.7135 71.8618C53.4044 71.9024 52.0953 71.9083 50.7862 71.9134C49.4771 71.9078 48.168 71.9019 46.8589 71.861C45.5498 71.825 44.2407 71.7818 42.9316 71.6897Z" fill="#FFE266"/>
<path d="M46.4365 74.5457C47.8148 74.3699 49.1931 74.3295 50.5715 74.3223C51.9498 74.3285 53.3281 74.3689 54.7064 74.5457C53.3281 74.7225 51.9498 74.7629 50.5715 74.7692C49.1931 74.7621 47.8148 74.7215 46.4365 74.5457Z" fill="#FFE266"/>
<path d="M29.436 95.9671C32.9586 95.7942 36.4812 95.6782 40.0038 95.6193C43.5264 95.548 47.049 95.529 50.5716 95.52C54.0942 95.5279 57.6168 95.5468 61.1393 95.618C64.6619 95.6764 68.1845 95.7932 71.7071 95.9671C68.1844 96.141 64.6619 96.2576 61.1393 96.3161C57.6168 96.3873 54.0942 96.4063 50.5716 96.4141C47.049 96.4053 43.5264 96.3862 40.0038 96.3148C36.481 96.2558 32.9585 96.1398 29.436 95.9671Z" fill="#FCAB28"/>
<g opacity="0.48">
<path d="M39.1035 0.572021C35.5048 0.922072 32.0161 1.40756 28.9589 1.96028C28.6046 12.5384 28.4919 30.2144 31.0785 39.9863C34.9343 54.5526 41.7891 61.836 41.7891 61.836C41.7891 61.836 37.5049 40.4148 37.9333 21.5641C38.1384 12.537 38.6383 5.48107 39.1035 0.572021Z" fill="#FFFFFD"/>
</g>
<path d="M82.4895 12.7815C80.1167 11.4233 77.4857 10.6465 74.844 10.0426C72.197 9.43654 69.5098 9.01288 66.8125 8.68263C64.1131 8.36676 61.4052 8.11666 58.6911 7.95537C55.9781 7.7864 53.2594 7.67566 50.5442 7.66404C47.8304 7.63771 45.1116 7.73078 42.3979 7.88209C39.6827 8.02195 36.9741 8.26404 34.2751 8.5763C31.5785 8.90394 28.889 9.31256 26.2447 9.92662C23.6077 10.5384 20.9738 11.3306 18.6543 12.7815C19.765 11.9945 20.9648 11.3052 22.2459 10.8189C22.5634 10.691 22.878 10.5525 23.1989 10.4332L24.1717 10.1034C24.8173 9.87051 25.4762 9.68518 26.1362 9.50165C28.7798 8.77995 31.4761 8.27402 34.1841 7.88422C39.6043 7.11394 45.0723 6.76373 50.5495 6.77011C56.0235 6.8321 61.4873 7.2147 66.9049 7.99348C69.6122 8.38574 72.3055 8.9064 74.95 9.61991C75.6141 9.78545 76.2648 10.0035 76.9168 10.2125C77.5734 10.4059 78.2109 10.6609 78.8488 10.9089C79.4953 11.1346 80.1047 11.4541 80.7235 11.7441C81.0369 11.8815 81.3283 12.0624 81.618 12.245L82.4895 12.7815Z" fill="#FCAB28"/>
<path d="M36.5963 17.4655L38.5966 13.96L40.4691 17.5355L43.9748 19.5361L40.3992 21.4085L38.3987 24.9143L36.5263 21.3387L33.0205 19.3381L36.5963 17.4655Z" fill="white"/>
<g opacity="0.35">
<path d="M30.1694 123.315H38.1082L57.9348 97.8235H48.8121L30.1694 123.315Z" fill="white"/>
</g>
<g opacity="0.35">
<path d="M49.7688 123.315L69.4334 97.8235H65.7051L45.8369 123.315H49.7688Z" fill="white"/>
</g>
</svg>
