<svg width="63" height="64" viewBox="0 0 63 64" fill="none" xmlns="http://www.w3.org/2000/svg">
<path d="M18.2523 28.0622C23.9459 28.0622 28.5803 32.6927 28.5803 38.3903C28.5803 44.0878 23.9498 48.7183 18.2523 48.7183C12.5587 48.7183 7.92422 44.0878 7.92422 38.3903L7.875 36.9432C7.875 25.5068 17.1419 16.2871 28.5311 16.2871V22.1737C24.5739 22.1737 20.9062 23.7172 18.1066 26.5148C17.5731 27.0483 17.0947 27.5759 16.6103 28.204C17.1439 28.1075 17.7207 28.0622 18.2523 28.0622ZM44.7969 28.0622C50.4906 28.0622 55.125 32.6927 55.125 38.3903C55.125 44.0878 50.4945 48.7183 44.7969 48.7183C39.1033 48.7183 34.4689 44.0878 34.4689 38.3903L34.4197 36.9432C34.4197 25.5068 43.6866 16.2871 55.0758 16.2871V22.1737C51.1678 22.1737 47.4508 23.7172 44.6512 26.5148C44.1177 27.0483 43.6393 27.5759 43.2042 28.204C43.7378 28.1075 44.2654 28.0602 44.7989 28.0602L44.7969 28.0583V28.0622Z" fill="black"/>
</svg>
