<svg width="25" height="24" viewBox="0 0 25 24" fill="none" xmlns="http://www.w3.org/2000/svg">
<path d="M12.079 0.230469C5.47646 0.230469 0.103212 5.40583 0.100884 11.7662C0.0993322 13.8002 0.651868 15.7853 1.69951 17.5337L0 23.5115L6.35028 21.9074C8.1167 22.8314 10.0808 23.3134 12.0743 23.312H12.079C18.6814 23.312 24.0547 18.1359 24.057 11.7755C24.0586 8.69466 22.8138 5.79463 20.5517 3.61475C18.2903 1.4341 15.2832 0.231245 12.079 0.230469ZM12.079 21.3634H12.0751C10.2886 21.3634 8.53636 20.9009 7.00758 20.0271L6.64284 19.8191L2.87598 20.7705L3.88172 17.2318L3.64503 16.8694C2.65085 15.3531 2.12162 13.5793 2.12245 11.7662C2.12478 6.47909 6.59162 2.17909 12.0828 2.17909C14.7415 2.17986 17.2411 3.17862 19.1215 4.99066C21.0018 6.80269 22.0362 9.21228 22.0347 11.7747C22.0324 17.0619 17.5663 21.3634 12.0782 21.3634H12.079ZM17.5399 14.1812C17.2403 14.0376 15.769 13.34 15.4943 13.243C15.2203 13.1475 15.0209 13.0979 14.8215 13.3866C14.6228 13.6752 14.0485 14.3248 13.8747 14.5165C13.6993 14.7089 13.5247 14.7322 13.2252 14.5886C12.9256 14.4443 11.961 14.1401 10.8187 13.1576C9.92857 12.394 9.32792 11.4504 9.15331 11.1609C8.9787 10.873 9.13468 10.717 9.28446 10.5734C9.41871 10.4454 9.58401 10.2374 9.73301 10.069C9.882 9.90062 9.93167 9.78033 10.0326 9.58788C10.1319 9.3962 10.0822 9.22702 10.0069 9.08345C9.93167 8.93834 9.33412 7.51975 9.08347 6.94315C8.84134 6.38131 8.59457 6.45658 8.41065 6.44727C8.23604 6.43951 8.03737 6.43718 7.83638 6.43718C7.63849 6.43718 7.31333 6.50935 7.03862 6.79804C6.76468 7.08672 5.99097 7.7836 5.99097 9.20219C5.99097 10.6216 7.06345 11.992 7.21323 12.1845C7.363 12.3762 9.32404 15.2886 12.3265 16.538C13.0405 16.8337 13.5977 17.0114 14.033 17.1449C14.7501 17.3645 15.4027 17.3327 15.918 17.259C16.4923 17.1759 17.6889 16.5621 17.9372 15.8893C18.1871 15.2164 18.1871 14.6391 18.1126 14.5188C18.0397 14.3985 17.8394 14.3263 17.5399 14.1812Z" fill="white"/>
</svg>
