<svg width="17" height="14" viewBox="0 0 17 14" fill="none" xmlns="http://www.w3.org/2000/svg">
<path d="M16.5406 2.55861C16.3517 1.87954 15.795 1.34419 15.0887 1.16258C13.8077 0.83252 8.67192 0.83252 8.67192 0.83252C8.67192 0.83252 3.53616 0.83252 2.25509 1.16258C1.54887 1.34419 0.992096 1.87954 0.803221 2.55861C0.459961 3.7904 0.459961 7.14941 0.459961 7.14941C0.459961 7.14941 0.459961 10.5084 0.803221 11.7402C0.992096 12.4193 1.54887 12.9546 2.25509 13.1362C3.53616 13.4663 8.67192 13.4663 8.67192 13.4663C8.67192 13.4663 13.8077 13.4663 15.0887 13.1362C15.7958 12.9546 16.3517 12.4193 16.5406 11.7402C16.8839 10.5084 16.8839 7.14941 16.8839 7.14941C16.8839 7.14941 16.8839 3.7904 16.5406 2.55861ZM7.02952 9.20082V5.098C7.02952 4.794 7.37196 4.60449 7.64542 4.7561L11.3408 6.80751C11.6143 6.95911 11.6143 7.3397 11.3408 7.49131L7.64542 9.54272C7.37196 9.69511 7.02952 9.50482 7.02952 9.20082Z" fill="black"/>
</svg>
